<svg xmlns="http://www.w3.org/2000/svg" viewBox="0 0 100 100" role="img" aria-label="Private Jet">
  <defs>
    <linearGradient id="lux-jet" x1="0" y1="0" x2="1" y2="1">
      <stop offset="0%" stop-color="#FFFFFF"/>
      <stop offset="55%" stop-color="#D8DEEA"/>
      <stop offset="100%" stop-color="#8A93A6"/>
    </linearGradient>
    <linearGradient id="lux-silver" x1="0" y1="0" x2="0" y2="1">
      <stop offset="0%" stop-color="#F4F6FA"/>
      <stop offset="50%" stop-color="#C2C8D4"/>
      <stop offset="100%" stop-color="#7B8392"/>
    </linearGradient>
  </defs>
  <g transform="rotate(-18 50 50)">
    <path d="M 12 52 Q 30 44 60 45 L 88 47 Q 94 50 88 53 L 60 55 Q 30 56 12 52 Z" fill="url(#lux-jet)" stroke="#3A4252" stroke-width="2" stroke-linejoin="round"/>
    <path d="M 86 47 Q 96 50 86 53 Z" fill="#9AA3B5"/>
    <path d="M 44 50 L 26 78 L 40 78 L 60 51 Z" fill="url(#lux-silver)" stroke="#3A4252" stroke-width="1.6" stroke-linejoin="round"/>
    <path d="M 46 49 L 30 22 L 44 22 L 62 49 Z" fill="#D8DEEA" stroke="#3A4252" stroke-width="1.6" stroke-linejoin="round"/>
    <path d="M 16 51 L 8 34 L 20 36 L 28 50 Z" fill="url(#lux-silver)" stroke="#3A4252" stroke-width="1.6" stroke-linejoin="round"/>
    <g fill="#1E6FB8">
      <circle cx="56" cy="49" r="2"/><circle cx="64" cy="49.2" r="2"/>
      <circle cx="72" cy="49.5" r="2"/><circle cx="80" cy="50" r="1.8"/>
    </g>
  </g>
</svg>
